<svg id="Layer_1" data-name="Layer 1" xmlns="http://www.w3.org/2000/svg" viewBox="0 0 50 31.24"><defs><style>.cls-1{fill:#f7b521;}</style></defs><title>behance</title><path class="cls-1" d="M25.17,32.57a7,7,0,0,1-3,6A10.13,10.13,0,0,1,19,40.09a13.9,13.9,0,0,1-3.9.53H0V9.38H16.72a6.31,6.31,0,0,1,3,.7,7.48,7.48,0,0,1,2.24,1.83,8.38,8.38,0,0,1,1.43,2.56,8.57,8.57,0,0,1-.63,7.16,7,7,0,0,1-3.35,3,8,8,0,0,1,4.25,2.84A8.2,8.2,0,0,1,25.17,32.57Zm-19.1-18v7.88h8.1a3.63,3.63,0,0,0,2.62-1.06,3.92,3.92,0,0,0,1.08-2.9,4,4,0,0,0-1-2.87,3.22,3.22,0,0,0-2.44-1Zm13,16.85a4.36,4.36,0,0,0-.29-1.6A4.22,4.22,0,0,0,18,28.47a3.58,3.58,0,0,0-1.14-.9,3.31,3.31,0,0,0-1.45-.33H6.07v8.23h9a4,4,0,0,0,1.56-.31,3.63,3.63,0,0,0,1.26-.86,4.2,4.2,0,0,0,1.14-2.88Z" transform="translate(0 -9.38)"/><path class="cls-1" d="M38.32,40.62a12.24,12.24,0,0,1-4.86-.92,10.91,10.91,0,0,1-6.07-6.16,11.61,11.61,0,0,1-.83-4.39,12.56,12.56,0,0,1,.8-4.5,10.94,10.94,0,0,1,6.08-6.24,12.38,12.38,0,0,1,4.93-.94,12.07,12.07,0,0,1,4.88.94C48,20.46,50.19,25,50,30a4.94,4.94,0,0,1-.11.86H32.61a6.63,6.63,0,0,0,.64,2.34,5.77,5.77,0,0,0,3.15,2.86,6.27,6.27,0,0,0,2.14.38,6.56,6.56,0,0,0,3.21-.83,4.37,4.37,0,0,0,2.07-2.19l4.9,1.36A9.91,9.91,0,0,1,44.78,39,12.28,12.28,0,0,1,38.32,40.62Zm5.8-13.47a5.94,5.94,0,0,0-1.85-4,5.69,5.69,0,0,0-4-1.51,5.61,5.61,0,0,0-3.92,1.53,5.75,5.75,0,0,0-1.26,1.75,6.14,6.14,0,0,0-.58,2.26Z" transform="translate(0 -9.38)"/><path class="cls-1" d="M30.81,10.86H45.75v3.71H30.81Z" transform="translate(0 -9.38)"/></svg>