<svg id="Layer_1" data-name="Layer 1" xmlns="http://www.w3.org/2000/svg" viewBox="0 0 50 50"><defs><style>.cls-1{fill:#f7b521;}</style></defs><title>dribbble</title><path class="cls-1" d="M25,0A25,25,0,1,0,50,25,25,25,0,0,0,25,0ZM41.45,11.82a20.92,20.92,0,0,1,4.66,12.86,52.41,52.41,0,0,0-9.76-.95,40.88,40.88,0,0,0-4.82.28l-.42-1c-.42-1-.88-2-1.35-3,7.39-3,11-7.27,11.69-8.22ZM25,3.94A21.05,21.05,0,0,1,38.91,9.18C38.33,10,35.13,14,28,16.67A115.81,115.81,0,0,0,20.24,4.48,21.19,21.19,0,0,1,25,3.94ZM15.93,6a136.5,136.5,0,0,1,7.72,12A80.25,80.25,0,0,1,4.56,20.56h-.2A21.16,21.16,0,0,1,15.93,6Zm-12,19c0-.17,0-.34,0-.52h.55a78.8,78.8,0,0,0,21.1-3c.56,1.12,1.11,2.25,1.61,3.37l-.7.22C15.89,28.51,10.09,37.53,9.2,39A21,21,0,0,1,3.88,25ZM25,46.13a21.05,21.05,0,0,1-12.88-4.4c.6-1.18,5-9.07,16.55-13.09h0a88.4,88.4,0,0,1,4.47,15.85A21,21,0,0,1,25,46.13ZM37,42.4a91.63,91.63,0,0,0-4.05-14.8,26.39,26.39,0,0,1,4.26-.32,31.13,31.13,0,0,1,8.66,1.21A21.08,21.08,0,0,1,37,42.4Z"/></svg>